# File created by Blade
# Date/Time:  Thu Jan 15 17:55:17 2015
#---------------------------------------------------------
:version 1.10
:name HOM
:units
  mass 1.0
  length 1.000000
  angle deg
:documentation
     Acclaim Skeleton File
:root
   axis xyz
   order TX TY TZ RX RY RZ
   position 0.000000 0.000000 0.000000
   orientation 0 0 0
:bonedata
   begin
      id 1
      name Spine_dum
      direction 0.000000 1.000000 0.000000
      length 5.015652
      axis 0.0 0.0 0.0 xyz
   end
   begin
      id 2
      name LeftUpLeg_dum
      direction 1.000000 0.000000 0.000000
      length 4.275145
      axis 0.0 0.0 0.0 xyz
   end
   begin
      id 3
      name RightUpLeg_dum
      direction -1.000000 0.000000 0.000000
      length 4.275145
      axis 0.0 0.0 0.0 xyz
   end
   begin
      id 4
      name Spine
      direction 0.000000 1.000000 0.000000
      length 0.000000
      axis 0.0 0.0 0.0 xyz
      dof rx ry rz
   end
   begin
      id 5
      name Spine_dum1
      direction 0.000000 1.000000 0.000000
      length 15.980521
      axis 0.0 0.0 0.0 xyz
   end
   begin
      id 6
      name Spine_dum2
      direction 0.000000 1.000000 0.000000
      length 12.162712
      axis 0.0 0.0 0.0 xyz
   end
   begin
      id 7
      name Spine_dum3
      direction 0.000000 1.000000 0.000000
      length 12.162712
      axis 0.0 0.0 0.0 xyz
   end
   begin
      id 8
      name Head
      direction 0.000000 1.000000 0.000000
      length 4.527550
      axis 0.0 0.0 0.0 xyz
      dof rx ry rz
   end
   begin
      id 9
      name LeftShoulder
      direction 1.000000 0.000000 0.000000
      length 7.205867
      axis 0.0 0.0 -90.0 xyz
      dof rx ry rz
   end
   begin
      id 10
      name LeftArm
      direction 1.000000 0.000000 0.000000
      length 10.786708
      axis 0.0 0.0 -90.0 xyz
      dof rx ry rz
   end
   begin
      id 11
      name LeftForeArm
      direction 1.000000 0.000000 0.000000
      length 7.946034
      axis 0.0 0.0 -90.0 xyz
      dof rz ry rx
   end
   begin
      id 12
      name LeftHand
      direction 0.000000 0.000000 0.000000
      length 0.000000
      axis 0.0 0.0 -90.0 xyz
      dof rx ry rz
   end
   begin
      id 13
      name LeftHand_dum1
      direction 0.000000 0.000000 0.000000
      length 0.000000
      axis 0.0 0.0 -90.0 xyz
   end
   begin
      id 14
      name LeftHand_dum2
      direction 1.000000 0.000000 0.000000
      length 3.937000
      axis 0.0 0.0 -90.0 xyz
   end
   begin
      id 15
      name LeftHandThumb1
      direction 0.000000 0.000000 1.000000
      length 3.937000
      axis 0.0 0.0 -90.0 xyz
      dof rx ry rz
   end
   begin
      id 16
      name RightShoulder
      direction -1.000000 0.000000 0.000000
      length 7.205867
      axis 0.0 0.0 90.0 xyz
      dof rx ry rz
   end
   begin
      id 17
      name RightArm
      direction -1.000000 0.000000 0.000000
      length 10.786708
      axis 0.0 0.0 90.0 xyz
      dof rx ry rz
   end
   begin
      id 18
      name RightForeArm
      direction -1.000000 0.000000 0.000000
      length 7.946034
      axis 0.0 0.0 90.0 xyz
      dof rz ry rx
   end
   begin
      id 19
      name RightHand
      direction 0.000000 0.000000 0.000000
      length 0.000000
      axis 0.0 0.0 90.0 xyz
      dof rx ry rz
   end
   begin
      id 20
      name RightHand_dum1
      direction 0.000000 0.000000 0.000000
      length 0.000000
      axis 0.0 0.0 90.0 xyz
   end
   begin
      id 21
      name RightHand_dum2
      direction -1.000000 0.000000 0.000000
      length 3.937000
      axis 0.0 0.0 90.0 xyz
   end
   begin
      id 22
      name RightHandThumb1
      direction 0.000000 0.000000 1.000000
      length 3.937000
      axis 0.0 0.0 90.0 xyz
      dof rx ry rz
   end
   begin
      id 23
      name LeftUpLeg
      direction 0.000000 -1.000000 0.000000
      length 17.046659
      axis 0.0 0.0 0.0 xyz
      dof rx ry rz
   end
   begin
      id 24
      name LeftLeg
      direction 0.000000 -1.000000 0.000000
      length 17.458438
      axis 0.0 0.0 0.0 xyz
      dof rx ry rz
   end
   begin
      id 25
      name LeftFoot
      direction 0.000000 -0.258819 0.965926
      length 5.099406
      axis 15.0 0.0 0.0 xyz
      dof rx ry rz
   end
   begin
      id 26
      name LeftToeBase
      direction 0.000000 0.000000 1.000000
      length 2.952750
      axis 0.0 0.0 0.0 xyz
      dof rx ry rz
   end
   begin
      id 27
      name RightUpLeg
      direction 0.000000 -1.000000 0.000000
      length 17.046659
      axis 0.0 0.0 0.0 xyz
      dof rx ry rz
   end
   begin
      id 28
      name RightLeg
      direction 0.000000 -1.000000 0.000000
      length 17.458438
      axis 0.0 0.0 0.0 xyz
      dof rx ry rz
   end
   begin
      id 29
      name RightFoot
      direction 0.000000 -0.258819 0.965926
      length 5.099406
      axis 15.0 0.0 0.0 xyz
      dof rx ry rz
   end
   begin
      id 30
      name RightToeBase
      direction 0.000000 0.000000 1.000000
      length 2.952750
      axis 0.0 0.0 0.0 xyz
      dof rx ry rz
   end
:hierarchy
   begin
      root Spine_dum LeftUpLeg_dum RightUpLeg_dum
      Spine_dum Spine
      LeftUpLeg_dum LeftUpLeg
      RightUpLeg_dum RightUpLeg
      Spine Spine_dum1 Spine_dum2 Spine_dum3
      Spine_dum1 Head
      Spine_dum2 LeftShoulder
      Spine_dum3 RightShoulder
      LeftShoulder LeftArm
      LeftArm LeftForeArm
      LeftForeArm LeftHand
      LeftHand LeftHand_dum1 LeftHand_dum2
      LeftHand_dum1 LeftHandThumb1
      RightShoulder RightArm
      RightArm RightForeArm
      RightForeArm RightHand
      RightHand RightHand_dum1 RightHand_dum2
      RightHand_dum1 RightHandThumb1
      LeftUpLeg LeftLeg
      LeftLeg LeftFoot
      LeftFoot LeftToeBase
      RightUpLeg RightLeg
      RightLeg RightFoot
      RightFoot RightToeBase
   end

# File created by Blade
# Date/Time:  Thu Jan 15 17:55:09 2015
# Frame Rate: 120.000 fps
#------------------------------------------------------
:FULLY-SPECIFIED
:DEGREES
1514
root 1.999314 35.572385 -9.763656 3.925233 4.104247 1.735621
Spine -3.530576 -15.739926 -2.231907
Head -2.536837 11.257044 10.076890
LeftShoulder -37.038457 0.233007 12.589441
LeftArm 6.560971 -46.131554 -16.661017
LeftForeArm -0.000000 23.475827 -3.653674
LeftHand -1.873182 -0.000000 -1.847656
LeftHandThumb1 -26.253704 33.147579 0.000000
RightShoulder -4.593207 19.704687 -18.470275
RightArm -14.686214 44.438447 16.274629
RightForeArm -0.000000 -47.939114 11.988137
RightHand -3.292752 -0.000000 5.597232
RightHandThumb1 -24.326973 -32.862282 -0.000000
LeftUpLeg -11.316658 7.686669 9.137893
LeftLeg 23.470828 -0.000000 -0.000000
LeftFoot -26.231629 11.391393 -18.687530
LeftToeBase 15.665349 -0.000000 -0.000000
RightUpLeg 4.966693 -15.418190 0.432015
RightLeg -4.704316 -0.000000 0.000000
RightFoot -23.522780 -34.093355 10.039871
RightToeBase 26.598548 -0.000000 -0.000000
1515
root 2.029839 35.575685 -9.765545 3.778054 4.250262 1.800813
Spine -3.246865 -15.818523 -2.346410
Head -2.695550 11.275277 10.141158
LeftShoulder -37.023698 0.243550 12.556643
LeftArm 6.771476 -45.984689 -16.768947
LeftForeArm -0.000000 23.545578 -3.626787
LeftHand -1.703003 -0.000000 -1.871676
LeftHandThumb1 -26.253704 33.147579 0.000000
RightShoulder -4.552398 19.591308 -18.445598
RightArm -14.739148 44.400584 16.321575
RightForeArm 0.000000 -47.924019 12.132705
RightHand -3.265339 -0.000000 5.621780
RightHandThumb1 -24.326973 -32.862282 -0.000000
LeftUpLeg -11.207875 7.932643 8.859731
LeftLeg 23.499837 -0.000000 -0.000000
LeftFoot -26.510886 10.300472 -18.856709
LeftToeBase 15.820084 -0.000000 -0.000000
RightUpLeg 5.108567 -15.503677 0.287326
RightLeg -4.647479 -0.000000 0.000000
RightFoot -23.561862 -34.155776 10.133892
RightToeBase 26.477468 -0.000000 -0.000000
1516
root 2.065616 35.579029 -9.763204 3.601435 4.383335 1.871725
Spine -2.951248 -15.870157 -2.470985
Head -2.830891 11.234475 10.192707
LeftShoulder -36.987824 0.278592 12.493489
LeftArm 7.031764 -45.922254 -16.885256
LeftForeArm 0.000000 23.523272 -3.600256
LeftHand -1.779825 -0.000000 -1.817541
LeftHandThumb1 -26.253704 33.147579 0.000000
RightShoulder -4.533451 19.474501 -18.424999
RightArm -14.741763 44.288768 16.387392
RightForeArm -0.000000 -47.846803 12.242293
RightHand -3.284062 -0.000000 5.467399
RightHandThumb1 -24.326973 -32.862282 -0.000000
LeftUpLeg -11.027013 8.048654 8.597909
LeftLeg 23.505368 -0.000000 -0.000000
LeftFoot -26.698305 9.327741 -18.986375
LeftToeBase 15.773296 -0.000000 -0.000000
RightUpLeg 5.283999 -15.575333 0.115301
RightLeg -4.573630 -0.000000 0.000000
RightFoot -23.603473 -34.247465 10.098742
RightToeBase 26.606981 -0.000000 -0.000000
1517
root 2.102534 35.581470 -9.762409 3.469254 4.486385 1.924912
Spine -2.714843 -15.885555 -2.584075
Head -2.958490 11.158844 10.288104
LeftShoulder -36.914347 0.306181 12.489885
LeftArm 7.207981 -45.909289 -16.977224
LeftForeArm -0.000000 23.640279 -3.566587
LeftHand -1.693897 0.000000 -1.732181
LeftHandThumb1 -26.253704 33.147579 0.000000
RightShoulder -4.545863 19.356176 -18.389203
RightArm -14.683753 44.181547 16.485248
RightForeArm -0.000000 -47.812690 12.333498
RightHand -3.293567 0.000000 5.356031
RightHandThumb1 -24.326973 -32.862282 -0.000000
LeftUpLeg -10.899447 8.186345 8.351259
LeftLeg 23.553422 -0.000000 -0.000000
LeftFoot -26.835671 8.444208 -19.147742
LeftToeBase 16.009811 -0.000000 -0.000000
RightUpLeg 5.376815 -15.684796 -0.031107
RightLeg -4.446607 -0.000000 0.000000
RightFoot -23.653991 -34.270056 10.097047
RightToeBase 26.620898 -0.000000 -0.000000
1518
root 2.143627 35.584157 -9.762373 3.357531 4.602793 1.967143
Spine -2.519207 -15.947561 -2.676281
Head -3.034565 11.154873 10.378375
LeftShoulder -36.838006 0.349009 12.461975
LeftArm 7.362713 -45.809098 -16.992726
LeftForeArm -0.000000 23.673481 -3.601084
LeftHand -1.564099 -0.000000 -1.691710
LeftHandThumb1 -26.253704 33.147579 0.000000
RightShoulder -4.531594 19.185034 -18.325068
RightArm -14.554189 44.163194 16.599751
RightForeArm -0.000000 -47.652229 12.414456
RightHand -3.230623 -0.000000 5.269927
RightHandThumb1 -24.326973 -32.862282 -0.000000
LeftUpLeg -10.784263 8.232362 8.124209
LeftLeg 23.600590 -0.000000 -0.000000
LeftFoot -26.858022 7.707363 -19.300445
LeftToeBase 15.820917 -0.000000 -0.000000
RightUpLeg 5.459965 -15.681121 -0.166623
RightLeg -4.333268 -0.000000 0.000000
RightFoot -23.716913 -34.367328 10.161498
RightToeBase 26.613864 -0.000000 -0.000000
1519
root 2.189209 35.586052 -9.758744 3.244425 4.699894 2.003086
Spine -2.337531 -16.021387 -2.759484
Head -3.102774 11.128557 10.491890
LeftShoulder -36.781387 0.417844 12.458492
LeftArm 7.480289 -45.719589 -17.032228
LeftForeArm 0.000000 23.673386 -3.532210
LeftHand -1.653455 0.000000 -1.678222
LeftHandThumb1 -26.253704 33.147579 0.000000
RightShoulder -4.524522 19.077652 -18.275541
RightArm -14.420219 44.189316 16.719174
RightForeArm -0.000000 -47.725817 12.474087
RightHand -3.247039 -0.000000 5.107187
RightHandThumb1 -24.326973 -32.862282 -0.000000
LeftUpLeg -10.622511 8.187258 7.909370
LeftLeg 23.582145 -0.000000 -0.000000
LeftFoot -26.885469 7.187103 -19.506076
LeftToeBase 15.844367 -0.000000 -0.000000
RightUpLeg 5.501386 -15.879003 -0.309371
RightLeg -4.135782 -0.000000 0.000000
RightFoot -23.810012 -34.290969 10.198925
RightToeBase 26.651887 -0.000000 -0.000000
1520
root 2.237013 35.588403 -9.751059 3.119926 4.748836 2.033589
Spine -2.179290 -16.051439 -2.844377
Head -3.095592 11.106674 10.591142
LeftShoulder -36.695053 0.509050 12.397979
LeftArm 7.613596 -45.728732 -16.982917
LeftForeArm 0.000000 23.706098 -3.592249
LeftHand -1.564684 -0.000000 -1.501160
LeftHandThumb1 -26.253704 33.147579 0.000000
RightShoulder -4.512586 18.971220 -18.183817
RightArm -14.193223 44.133537 16.837914
RightForeArm -0.000000 -47.598632 12.482347
RightHand -3.030792 -0.000000 4.754938
RightHandThumb1 -24.326973 -32.862282 -0.000000
LeftUpLeg -10.407304 8.150246 7.700811
LeftLeg 23.543324 -0.000000 -0.000000
LeftFoot -26.903913 6.884308 -19.646915
LeftToeBase 16.106839 -0.000000 -0.000000
RightUpLeg 5.548574 -15.986589 -0.452379
RightLeg -3.928495 -0.000000 0.000000
RightFoot -23.896567 -34.264468 10.237424
RightToeBase 26.713887 -0.000000 -0.000000
1521
root 2.291180 35.589915 -9.744212 3.013617 4.794990 2.038081
Spine -2.039299 -16.120340 -2.890018
Head -3.113650 11.059669 10.708433
LeftShoulder -36.678260 0.569846 12.389904
LeftArm 7.764340 -45.647865 -16.990404
LeftForeArm -0.000000 23.666965 -3.610917
LeftHand -1.578114 -0.000000 -1.297094
LeftHandThumb1 -26.253704 33.147579 0.000000
RightShoulder -4.495226 18.916056 -18.122192
RightArm -13.993103 44.097855 16.996046
RightForeArm -0.000000 -47.550863 12.584116
RightHand -3.093309 -0.000000 4.601999
RightHandThumb1 -24.326973 -32.862282 -0.000000
LeftUpLeg -10.193505 8.107049 7.505105
LeftLeg 23.450268 -0.000000 -0.000000
LeftFoot -26.868988 6.774273 -19.838952
LeftToeBase 16.188777 -0.000000 -0.000000
RightUpLeg 5.575941 -16.044832 -0.575900
RightLeg -3.719707 -0.000000 0.000000
RightFoot -23.991268 -34.253482 10.319015
RightToeBase 26.707866 -0.000000 -0.000000
1522
root 2.346825 35.590263 -9.732479 2.915120 4.786613 2.031902
Spine -1.949353 -16.114210 -2.928728
Head -3.057189 11.031586 10.835785
LeftShoulder -36.607330 0.641475 12.399680
LeftArm 7.874664 -45.609393 -16.971860
LeftForeArm -0.000000 23.722141 -3.609560
LeftHand -1.556244 -0.000000 -1.225054
LeftHandThumb1 -26.253704 33.147579 0.000000
RightShoulder -4.478846 18.865523 -18.085706
RightArm -13.838835 44.060115 17.122252
RightForeArm 0.000000 -47.606115 12.642119
RightHand -2.950861 -0.000000 4.557151
RightHandThumb1 -24.326973 -32.862282 -0.000000
LeftUpLeg -9.946327 7.999754 7.342975
LeftLeg 23.340593 -0.000000 -0.000000
LeftFoot -26.724474 6.801917 -19.945926
LeftToeBase 16.630165 -0.000000 -0.000000
RightUpLeg 5.597337 -16.107180 -0.693680
RightLeg -3.516731 -0.000000 0.000000
RightFoot -24.094002 -34.186081 10.404594
RightToeBase 26.756701 -0.000000 -0.000000
